<?xml version="1.0" encoding="utf-8"?>
<!DOCTYPE svg PUBLIC "-//W3C//DTD SVG 1.1//EN" "http://www.w3.org/Graphics/SVG/1.1/DTD/svg11.dtd">
<svg xmlns="http://www.w3.org/2000/svg" xmlns:xlink="http://www.w3.org/1999/xlink" version="1.1" baseProfile="full" width="81.9318" height="82.0721" viewBox="0 0 81.93 82.07" enable-background="new 0 0 81.93 82.07" xml:space="preserve">
	<path fill="#3D3D3D" fill-opacity="0.976471" stroke-width="0.2" stroke-linejoin="round" d="M 4.20886,-0.00012207L 77.723,-0.00012207C 80.0474,-0.00012207 81.9319,1.8844 81.9319,4.20886L 81.9319,77.8632C 81.9319,80.1876 80.0474,82.0721 77.723,82.0721L 4.20886,82.0721C 1.88452,82.0721 0,80.1876 0,77.8632L 0,4.20886C 0,1.8844 1.88452,-0.00012207 4.20886,-0.00012207 Z M 46.9299,76.4946L 58.5776,76.4946L 58.5776,46.4713L 69.5182,46.4713L 70.3591,35.2481L 58.5735,35.2481L 58.5735,27.6562C 58.5735,27.6562 58.0132,22.4813 62.2922,22.4814L 69.868,22.4814L 69.868,12.3061L 63.8337,12.3061C 63.8337,12.3061 46.8599,11.0706 46.8596,24.5156L 46.8596,35.2501L 38.9331,35.2501L 38.9331,46.1913L 47.0076,46.1913L 46.9299,76.4946 Z "/>
</svg>
