<?xml version="1.0" encoding="utf-8"?>
<!DOCTYPE svg PUBLIC "-//W3C//DTD SVG 1.1//EN" "http://www.w3.org/Graphics/SVG/1.1/DTD/svg11.dtd">
<svg xmlns="http://www.w3.org/2000/svg" xmlns:xlink="http://www.w3.org/1999/xlink" version="1.1" baseProfile="full" width="27.0904" height="27.1846" viewBox="0 0 27.09 27.18" enable-background="new 0 0 27.09 27.18" xml:space="preserve">
	<path fill="#706CF5" fill-opacity="1" stroke-width="0.2" stroke-linejoin="round" d="M 15.7872,6.10352e-005C 22.5173,6.10352e-005 27.0904,4.57309 27.0904,11.3032L 27.0904,15.8814L 27.0817,16.3873C 26.8579,22.8397 22.3473,27.1846 15.7872,27.1846L 11.3032,27.1846C 4.57303,27.1846 0,22.7586 0,16.0285L 0,11.1561C 0,4.62692 4.30405,0.266357 10.7061,0.0118103L 11.3032,0L 15.7872,6.10352e-005 Z "/>
	<path fill="#FFFFFF" fill-opacity="1" fill-rule="evenodd" stroke-width="0.2" stroke-linejoin="round" d="M 17.4716,19.5393C 16.3457,20.2843 14.9959,20.7181 13.5447,20.7181C 10.7511,20.7181 8.33304,19.1105 7.16501,16.77C 6.57507,16.4591 6.03442,16.1345 5.55142,15.8025C 6.51871,19.3086 9.73105,21.8834 13.5447,21.8834C 15.8093,21.8834 17.8618,20.9755 19.3582,19.5039C 18.7739,19.5527 18.1415,19.5649 17.4716,19.5393 Z M 6.57266,15.0714C 6.09326,14.7777 5.65811,14.4758 5.27341,14.1701C 3.84634,13.0363 3.11304,11.851 3.38693,10.8447C 3.66006,9.84128 4.88681,9.19202 6.68332,8.9364C 8.17502,6.74231 10.6916,5.30115 13.5447,5.30115C 17.9417,5.30115 21.5392,8.72382 21.8185,13.0502C 23.2449,14.1838 23.9779,15.3688 23.7041,16.3749C 23.4295,17.3836 22.1913,18.0344 20.3794,18.2872C 19.8921,18.3552 19.3633,18.3944 18.8006,18.4041C 16.9662,18.4355 14.7713,18.1527 12.4788,17.5287C 10.1801,16.903 8.1398,16.0313 6.57266,15.0714 Z M 19.7204,17.1497C 20.3178,16.1147 20.6626,14.9156 20.6703,13.6367L 20.6705,13.5923C 20.6705,9.65686 17.4802,6.46655 13.5447,6.46655C 10.9282,6.46655 8.64108,7.87677 7.40189,9.97861C 6.77817,11.0366 6.41995,12.2699 6.41895,13.5867C 7.90335,14.5802 10.1467,15.5598 12.7417,16.2661C 15.4202,16.9952 17.9234,17.2834 19.7204,17.1497 Z M 21.1443,16.9125C 21.859,16.7027 22.3197,16.371 22.4424,15.9203C 22.5672,15.4618 22.3279,14.9319 21.7991,14.3784L 21.788,14.4883C 21.6963,15.3419 21.4751,16.1566 21.1443,16.9125 Z M 6.00974,10.1282L 6.06973,10.0007C 5.22672,10.2082 4.68851,10.5587 4.55444,11.0514C 4.42175,11.5389 4.70065,12.1069 5.30124,12.6982C 5.39865,11.7896 5.64285,10.9248 6.00974,10.1282 Z "/>
</svg>
