<?xml version="1.0" encoding="utf-8"?>
<!DOCTYPE svg PUBLIC "-//W3C//DTD SVG 1.1//EN" "http://www.w3.org/Graphics/SVG/1.1/DTD/svg11.dtd">
<svg xmlns="http://www.w3.org/2000/svg" xmlns:xlink="http://www.w3.org/1999/xlink" version="1.1" baseProfile="full" width="72" height="59" viewBox="0 0 72.00 59.00" enable-background="new 0 0 72.00 59.00" xml:space="preserve">
	<path fill="#FFFFFF" fill-opacity="0.952941" stroke-linejoin="round" d="M 53.5232,49.9038C 56.0837,49.9838 58.4842,49.9038 60.7246,49.7437C 55.0435,55.2648 47.2021,58.6254 38.5605,58.6254C 27.8385,58.6254 18.3967,53.4244 12.6357,45.503L 12.1556,45.4229C 5.91444,44.6228 1.59364,42.3824 0.633464,38.9417C -0.246699,35.5811 2.23376,31.5004 7.19468,27.6597C 7.35471,25.0192 7.91481,22.3787 8.87499,19.8982C 12.6357,8.53612 23.2776,0.374615 35.92,0.374615C 46.0019,0.374615 54.9635,5.65559 60.0044,13.6571C 66.1656,14.5372 70.4064,16.6976 71.2865,20.1383C 72.2467,23.4989 69.6862,27.5796 64.7253,31.4204L 64.2452,31.8204C 63.045,32.7006 61.6847,33.6608 60.1645,34.5409L 58.8842,35.2611C 53.6033,38.2216 47.042,40.8621 39.6807,42.8625C 32.3193,44.8628 25.198,45.823 19.1169,45.823L 18.6368,45.823C 23.5977,51.024 30.719,54.3046 38.5605,54.3046C 44.0815,54.3046 49.2024,52.6243 53.5232,49.9038 Z M 59.7644,28.8599C 59.7644,20.0583 55.0435,12.4568 47.9222,8.29608C 40.5608,4.29534 31.1991,4.13531 23.3577,8.61614L 22.0774,9.41629C 15.9963,13.7371 11.9956,20.8584 11.9956,28.8599C 11.9956,33.6608 13.4358,38.0616 15.8363,41.8223C 21.9174,41.9823 29.8389,40.9421 38.2404,38.7017C 46.962,36.3813 54.5634,33.1807 59.6844,29.9001L 59.7644,28.8599 Z M 62.0848,17.5778L 62.2449,17.8979C 63.4451,20.5383 64.2452,23.3389 64.5653,26.0594C 66.3256,24.219 67.1258,22.4587 66.7257,20.9384C 66.3256,19.4181 64.6453,18.2179 62.0848,17.5778 Z M 4.55419,37.5815C 5.03428,39.1818 6.87462,40.382 9.67514,41.1021C 8.3949,38.2216 7.59475,35.2611 7.27469,32.3005L 7.19468,31.8204C 5.03428,33.9008 4.0741,35.9012 4.55419,37.5815 Z "/>
</svg>
