<?xml version="1.0" encoding="utf-8"?>
<!DOCTYPE svg PUBLIC "-//W3C//DTD SVG 1.1//EN" "http://www.w3.org/Graphics/SVG/1.1/DTD/svg11.dtd">
<svg xmlns="http://www.w3.org/2000/svg" xmlns:xlink="http://www.w3.org/1999/xlink" version="1.1" baseProfile="full" width="404.74" height="30.5938" viewBox="0 0 404.74 30.59" enable-background="new 0 0 404.74 30.59" xml:space="preserve">
	<g>
		<path fill="#3D3D3D" fill-opacity="1" stroke-width="0.2" stroke-linejoin="round" d="M 8.85501,22.6738C 7.60526,22.6738 6.43729,22.4385 5.35104,21.9679C 4.2648,21.4974 3.32596,20.8557 2.53458,20.0429C 1.74319,19.2302 1.12289,18.2852 0.673737,17.2082C 0.224579,16.1311 0,14.9753 0,13.7409C 0,12.5064 0.224579,11.346 0.673737,10.2599C 1.12289,9.17355 1.74319,8.22409 2.53458,7.41129C 3.32596,6.59848 4.2648,5.95682 5.35104,5.4863C 6.43729,5.01572 7.60526,4.78043 8.85501,4.78043C 9.56082,4.78043 10.2705,4.87442 10.9839,5.06235C 11.6974,5.25021 12.3719,5.53287 13.0075,5.91025C 13.643,6.28757 14.2251,6.7482 14.7538,7.29208C 15.2823,7.83603 15.7117,8.45474 16.0417,9.14835L 16.0417,5.07376L 17.6871,5.07376L 17.6871,22.3805L 16.0417,22.3805L 16.0417,18.4617C 15.7117,19.1339 15.2823,19.7351 14.7538,20.2652C 14.2251,20.7954 13.643,21.2376 13.0075,21.5921C 12.3719,21.9466 11.6974,22.2154 10.9839,22.3988C 10.2705,22.5821 9.56082,22.6738 8.85501,22.6738 Z M 8.91458,21.2071C 9.95041,21.2071 10.9083,21.0139 11.7883,20.6273C 12.6683,20.2408 13.4414,19.7107 14.1075,19.0369C 14.7736,18.3631 15.2923,17.5702 15.6635,16.6582C 16.0348,15.7461 16.2204,14.7737 16.2204,13.7409C 16.2204,12.7112 16.0348,11.7402 15.6635,10.8282C 15.2923,9.91611 14.7736,9.12314 14.1075,8.44943C 13.4414,7.77567 12.6683,7.2402 11.7883,6.84293C 10.9083,6.44571 9.95041,6.2471 8.91458,6.2471C 7.91846,6.2471 6.98041,6.4404 6.1004,6.82687C 5.22043,7.21341 4.4527,7.74893 3.79727,8.43332C 3.14188,9.11777 2.62854,9.91074 2.25729,10.8121C 1.88602,11.7135 1.70041,12.6897 1.70041,13.7409C 1.70041,14.7737 1.88602,15.7461 2.25729,16.6582C 2.62854,17.5702 3.14188,18.3631 3.79727,19.0369C 4.4527,19.7107 5.22043,20.2408 6.1004,20.6273C 6.98041,21.0139 7.91846,21.2071 8.91458,21.2071 Z "/>
		<path fill="#3D3D3D" fill-opacity="1" stroke-width="0.2" stroke-linejoin="round" d="M 28.8337,0.967133L 30.6212,0.967133L 36.08,19.8L 42.4737,0.967133L 44.0871,0.967133L 50.4212,19.8L 56.0817,0.967133L 57.8416,0.967133L 51.3012,22.3805L 49.5733,22.3805L 43.2346,3.80881L 36.8683,22.3805L 35.1404,22.3805L 28.8337,0.967133 Z "/>
		<path fill="#3D3D3D" fill-opacity="1" stroke-width="0.2" stroke-linejoin="round" d="M 67.5216,22.6738C 66.1344,22.6738 64.8832,22.4438 63.7679,21.984C 62.6526,21.5241 61.7092,20.8969 60.9377,20.1025C 60.1662,19.3081 59.5703,18.3723 59.1502,17.2953C 58.7301,16.2182 58.52,15.0532 58.52,13.8004C 58.52,12.5263 58.7446,11.3407 59.1937,10.2437C 59.6429,9.14682 60.2632,8.19736 61.0546,7.39523C 61.8459,6.59317 62.7894,5.95682 63.8848,5.4863C 64.9802,5.01572 66.1635,4.78043 67.4346,4.78043C 68.6873,4.78043 69.8462,4.99277 70.911,5.41751C 71.9759,5.84225 72.8994,6.44113 73.6816,7.2142C 74.4639,7.98727 75.075,8.90012 75.515,9.95273C 75.955,11.0053 76.175,12.1596 76.175,13.4154L 76.175,14.1671L 60.1333,14.1671C 60.1914,15.1754 60.406,16.1128 60.7773,16.979C 61.1485,17.8452 61.6565,18.5901 62.3012,19.2133C 62.946,19.8367 63.7083,20.3248 64.5883,20.6777C 65.4684,21.0307 66.4461,21.2071 67.5216,21.2071C 69.1839,21.2071 70.5826,20.7931 71.7177,19.9651C 72.8528,19.1369 73.703,17.9942 74.2683,16.5367L 75.7671,17.2563C 75.0032,18.9826 73.9467,20.3172 72.5977,21.2599C 71.2487,22.2025 69.5566,22.6738 67.5216,22.6738 Z M 67.4346,6.2471C 66.4782,6.2471 65.589,6.4144 64.7671,6.74899C 63.9452,7.08359 63.2164,7.535 62.5808,8.10336C 61.9453,8.67172 61.4174,9.34927 60.9973,10.1361C 60.5771,10.9229 60.3075,11.7777 60.1883,12.7004L 74.4746,12.7004C 74.3982,11.7563 74.169,10.8869 73.7871,10.0925C 73.4052,9.29807 72.9109,8.61594 72.3044,8.04605C 71.6978,7.47623 70.9844,7.03391 70.1639,6.71921C 69.3435,6.40445 68.4337,6.2471 67.4346,6.2471 Z "/>
		<path fill="#3D3D3D" fill-opacity="1" stroke-width="0.2" stroke-linejoin="round" d="M 89.2283,22.6738C 88.5255,22.6738 87.8174,22.5821 87.104,22.3988C 86.3905,22.2154 85.716,21.9466 85.0804,21.5921C 84.4449,21.2376 83.8628,20.8008 83.3341,20.2813C 82.8055,19.7618 82.3747,19.1751 82.0417,18.5213L 82.0417,22.3805L 80.4283,22.3805L 80.4283,0.527069L 82.0737,0.527069L 82.0737,9.02921C 82.4068,8.35696 82.8369,7.75809 83.3639,7.23251C 83.891,6.707 84.4724,6.26083 85.1079,5.8942C 85.7434,5.52756 86.4134,5.25021 87.1177,5.06235C 87.822,4.87442 88.5255,4.78043 89.2283,4.78043C 90.4811,4.78043 91.6499,5.01572 92.7346,5.4863C 93.8193,5.95682 94.7581,6.59848 95.551,7.41129C 96.344,8.22409 96.965,9.17355 97.4142,10.2599C 97.8633,11.346 98.0879,12.5064 98.0879,13.7409C 98.0879,14.9753 97.858,16.1311 97.3981,17.2082C 96.9383,18.2852 96.3126,19.2302 95.5212,20.0429C 94.7299,20.8557 93.7964,21.4974 92.7208,21.9679C 91.6453,22.4385 90.4811,22.6738 89.2283,22.6738 Z M 89.1733,21.2071C 90.1694,21.2071 91.1075,21.0139 91.9875,20.6273C 92.8675,20.2408 93.6299,19.7107 94.2746,19.0369C 94.9193,18.3631 95.4281,17.5702 95.8008,16.6582C 96.1736,15.7461 96.36,14.7737 96.36,13.7409C 96.36,12.6897 96.1736,11.7135 95.8008,10.8121C 95.4281,9.91074 94.9193,9.11777 94.2746,8.43332C 93.6299,7.74893 92.8675,7.21341 91.9875,6.82687C 91.1075,6.4404 90.1694,6.2471 89.1733,6.2471C 88.1344,6.2471 87.1704,6.44571 86.2813,6.84293C 85.3921,7.2402 84.6198,7.77567 83.9644,8.44943C 83.309,9.12314 82.7956,9.91611 82.4243,10.8282C 82.0531,11.7402 81.8675,12.7112 81.8675,13.7409C 81.8675,14.7737 82.0531,15.7461 82.4243,16.6582C 82.7956,17.5702 83.309,18.3631 83.9644,19.0369C 84.6198,19.7107 85.3921,20.2408 86.2813,20.6273C 87.1704,21.0139 88.1344,21.2071 89.1733,21.2071 Z "/>
		<path fill="#3D3D3D" fill-opacity="1" stroke-width="0.2" stroke-linejoin="round" d="M 117.975,22.6738C 116.588,22.6738 115.337,22.4438 114.221,21.984C 113.106,21.5241 112.163,20.8969 111.391,20.1025C 110.62,19.3081 110.024,18.3723 109.604,17.2953C 109.183,16.2182 108.973,15.0532 108.973,13.8004C 108.973,12.5263 109.198,11.3407 109.647,10.2437C 110.096,9.14682 110.717,8.19736 111.508,7.39523C 112.299,6.59317 113.243,5.95682 114.338,5.4863C 115.434,5.01572 116.617,4.78043 117.888,4.78043C 119.141,4.78043 120.3,4.99277 121.364,5.41751C 122.429,5.84225 123.353,6.44113 124.135,7.2142C 124.917,7.98727 125.528,8.90012 125.968,9.95273C 126.408,11.0053 126.628,12.1596 126.628,13.4154L 126.628,14.1671L 110.587,14.1671C 110.645,15.1754 110.859,16.1128 111.231,16.979C 111.602,17.8452 112.11,18.5901 112.755,19.2133C 113.399,19.8367 114.162,20.3248 115.042,20.6777C 115.922,21.0307 116.899,21.2071 117.975,21.2071C 119.637,21.2071 121.036,20.7931 122.171,19.9651C 123.306,19.1369 124.156,17.9942 124.722,16.5367L 126.22,17.2563C 125.457,18.9826 124.4,20.3172 123.051,21.2599C 121.702,22.2025 120.01,22.6738 117.975,22.6738 Z M 117.888,6.2471C 116.932,6.2471 116.042,6.4144 115.22,6.74899C 114.398,7.08359 113.67,7.535 113.034,8.10336C 112.399,8.67172 111.871,9.34927 111.451,10.1361C 111.03,10.9229 110.761,11.7777 110.642,12.7004L 124.928,12.7004C 124.852,11.7563 124.622,10.8869 124.24,10.0925C 123.858,9.29807 123.364,8.61594 122.758,8.04605C 122.151,7.47623 121.438,7.03391 120.617,6.71921C 119.797,6.40445 118.887,6.2471 117.888,6.2471 Z "/>
		<path fill="#3D3D3D" fill-opacity="1" stroke-width="0.2" stroke-linejoin="round" d="M 129.594,5.07376L 131.441,5.07376L 137.188,20.1117L 142.94,5.07376L 144.728,5.07376L 138.013,22.3805L 136.308,22.3805L 129.594,5.07376 Z "/>
		<path fill="#3D3D3D" fill-opacity="1" stroke-width="0.2" stroke-linejoin="round" d="M 156.695,22.6738C 155.308,22.6738 154.057,22.4438 152.941,21.984C 151.826,21.5241 150.883,20.8969 150.111,20.1025C 149.34,19.3081 148.744,18.3723 148.324,17.2953C 147.903,16.2182 147.693,15.0532 147.693,13.8004C 147.693,12.5263 147.918,11.3407 148.367,10.2437C 148.816,9.14682 149.437,8.19736 150.228,7.39523C 151.019,6.59317 151.963,5.95682 153.058,5.4863C 154.154,5.01572 155.337,4.78043 156.608,4.78043C 157.861,4.78043 159.02,4.99277 160.084,5.41751C 161.149,5.84225 162.073,6.44113 162.855,7.2142C 163.637,7.98727 164.248,8.90012 164.688,9.95273C 165.128,11.0053 165.348,12.1596 165.348,13.4154L 165.348,14.1671L 149.307,14.1671C 149.365,15.1754 149.579,16.1128 149.951,16.979C 150.322,17.8452 150.83,18.5901 151.475,19.2133C 152.119,19.8367 152.882,20.3248 153.762,20.6777C 154.642,21.0307 155.619,21.2071 156.695,21.2071C 158.357,21.2071 159.756,20.7931 160.891,19.9651C 162.026,19.1369 162.876,17.9942 163.442,16.5367L 164.94,17.2563C 164.177,18.9826 163.12,20.3172 161.771,21.2599C 160.422,22.2025 158.73,22.6738 156.695,22.6738 Z M 156.608,6.2471C 155.652,6.2471 154.762,6.4144 153.94,6.74899C 153.118,7.08359 152.39,7.535 151.754,8.10336C 151.119,8.67172 150.591,9.34927 150.171,10.1361C 149.75,10.9229 149.481,11.7777 149.362,12.7004L 163.648,12.7004C 163.572,11.7563 163.342,10.8869 162.96,10.0925C 162.578,9.29807 162.084,8.61594 161.478,8.04605C 160.871,7.47623 160.158,7.03391 159.337,6.71921C 158.517,6.40445 157.607,6.2471 156.608,6.2471 Z "/>
		<path fill="#3D3D3D" fill-opacity="1" stroke-width="0.2" stroke-linejoin="round" d="M 169.574,5.07376L 171.187,5.07376L 171.187,8.64877C 171.756,7.50601 172.617,6.57559 173.77,5.85751C 174.924,5.1395 176.263,4.78043 177.787,4.78043C 178.942,4.78043 179.984,4.96225 180.913,5.3259C 181.842,5.68948 182.644,6.21506 183.317,6.90256C 183.991,7.59006 184.509,8.42038 184.871,9.39359C 185.233,10.3668 185.414,11.4721 185.414,12.7096L 185.414,22.3805L 183.741,22.3805L 183.741,12.6225C 183.741,11.6539 183.6,10.7793 183.317,9.99857C 183.035,9.21786 182.629,8.55099 182.1,7.99796C 181.572,7.44492 180.926,7.0148 180.164,6.70773C 179.402,6.40067 178.541,6.2471 177.581,6.2471C 176.683,6.2471 175.847,6.41061 175.074,6.73752C 174.301,7.06448 173.631,7.51437 173.064,8.08731C 172.498,8.66025 172.053,9.33701 171.731,10.1178C 171.408,10.8984 171.247,11.744 171.247,12.6546L 171.247,22.3805L 169.574,22.3805L 169.574,5.07376 Z "/>
		<path fill="#3D3D3D" fill-opacity="1" stroke-width="0.2" stroke-linejoin="round" d="M 188.962,5.07376L 192.014,5.07376L 192.014,1.06796L 193.627,3.05176e-005L 193.627,5.07376L 198.147,5.07376L 198.147,6.54044L 193.627,6.54044L 193.627,16.2113C 193.627,17.2104 193.691,18.0194 193.818,18.6382C 193.944,19.2569 194.174,19.7359 194.507,20.075C 194.841,20.4142 195.3,20.6388 195.887,20.7487C 196.474,20.8588 197.227,20.9138 198.147,20.9138L 198.147,22.3805L 197.881,22.3805C 196.707,22.3805 195.744,22.2911 194.991,22.1123C 194.238,21.9336 193.641,21.612 193.201,21.1476C 192.761,20.6831 192.453,20.049 192.278,19.2455C 192.102,18.4419 192.014,17.4167 192.014,16.17L 192.014,6.54044L 188.962,6.54044L 188.962,5.07376 Z "/>
		<path fill="#3D3D3D" fill-opacity="1" stroke-width="0.2" stroke-linejoin="round" d="M 218.295,22.6738C 217.592,22.6738 216.884,22.5821 216.171,22.3988C 215.457,22.2154 214.783,21.9466 214.147,21.5921C 213.512,21.2376 212.929,20.8008 212.401,20.2813C 211.872,19.7618 211.441,19.1751 211.108,18.5213L 211.108,22.3805L 209.495,22.3805L 209.495,0.527069L 211.14,0.527069L 211.14,9.02921C 211.473,8.35696 211.904,7.75809 212.431,7.23251C 212.958,6.707 213.539,6.26083 214.175,5.8942C 214.81,5.52756 215.48,5.25021 216.184,5.06235C 216.889,4.87442 217.592,4.78043 218.295,4.78043C 219.548,4.78043 220.716,5.01572 221.801,5.4863C 222.886,5.95682 223.825,6.59848 224.618,7.41129C 225.411,8.22409 226.032,9.17355 226.481,10.2599C 226.93,11.346 227.155,12.5064 227.155,13.7409C 227.155,14.9753 226.925,16.1311 226.465,17.2082C 226.005,18.2852 225.379,19.2302 224.588,20.0429C 223.797,20.8557 222.863,21.4974 221.787,21.9679C 220.712,22.4385 219.548,22.6738 218.295,22.6738 Z M 218.24,21.2071C 219.236,21.2071 220.174,21.0139 221.054,20.6273C 221.934,20.2408 222.696,19.7107 223.341,19.0369C 223.986,18.3631 224.495,17.5702 224.867,16.6582C 225.24,15.7461 225.427,14.7737 225.427,13.7409C 225.427,12.6897 225.24,11.7135 224.867,10.8121C 224.495,9.91074 223.986,9.11777 223.341,8.43332C 222.696,7.74893 221.934,7.21341 221.054,6.82687C 220.174,6.4404 219.236,6.2471 218.24,6.2471C 217.201,6.2471 216.237,6.44571 215.348,6.84293C 214.459,7.2402 213.686,7.77567 213.031,8.44943C 212.376,9.12314 211.862,9.91611 211.491,10.8282C 211.12,11.7402 210.934,12.7112 210.934,13.7409C 210.934,14.7737 211.12,15.7461 211.491,16.6582C 211.862,17.5702 212.376,18.3631 213.031,19.0369C 213.686,19.7107 214.459,20.2408 215.348,20.6273C 216.237,21.0139 217.201,21.2071 218.24,21.2071 Z "/>
		<path fill="#3D3D3D" fill-opacity="1" stroke-width="0.2" stroke-linejoin="round" d="M 237.921,21.3767L 230.235,5.07376L 232.114,5.07376L 238.828,19.4608L 245.107,5.07376L 246.927,5.07376L 235.721,30.3004L 233.901,30.3004L 237.921,21.3767 Z "/>
		<path fill="#3D3D3D" fill-opacity="1" stroke-width="0.2" stroke-linejoin="round" d="M 263.381,22.6738C 261.799,22.6738 260.415,22.3629 259.231,21.7411C 258.047,21.1192 257.055,20.2828 256.254,19.2317L 257.661,18.1408C 258.346,19.1431 259.167,19.9047 260.125,20.4256C 261.083,20.9466 262.168,21.2071 263.381,21.2071C 264.105,21.2071 264.781,21.0994 265.407,20.884C 266.034,20.6685 266.576,20.3637 267.034,19.9696C 267.492,19.5754 267.854,19.0988 268.118,18.5396C 268.382,17.9804 268.515,17.3571 268.515,16.6696C 268.515,15.9424 268.363,15.3289 268.061,14.8294C 267.758,14.3298 267.353,13.9028 266.844,13.5484C 266.335,13.1939 265.753,12.8937 265.098,12.6477C 264.442,12.4018 263.763,12.1611 263.06,11.9259C 262.318,11.6906 261.589,11.4255 260.874,11.1306C 260.159,10.8358 259.518,10.4729 258.951,10.0421C 258.385,9.6113 257.926,9.08115 257.574,8.45169C 257.223,7.82224 257.047,7.04611 257.047,6.12338C 257.047,5.3381 257.213,4.61166 257.544,3.944C 257.876,3.27634 258.326,2.70187 258.894,2.22067C 259.463,1.73941 260.132,1.3613 260.904,1.08627C 261.675,0.811249 262.512,0.673798 263.413,0.673798C 264.859,0.673798 266.095,0.93808 267.121,1.46671C 268.148,1.99533 269.014,2.70877 269.72,3.60715L 268.4,4.6384C 267.832,3.82559 267.142,3.20609 266.331,2.77982C 265.519,2.35361 264.547,2.14047 263.413,2.14047C 262.766,2.14047 262.158,2.23825 261.591,2.43381C 261.025,2.62936 260.531,2.89902 260.111,3.24277C 259.691,3.58652 259.363,3.9982 259.128,4.47794C 258.893,4.95767 258.775,5.49088 258.775,6.07755C 258.775,6.76193 258.922,7.33945 259.215,7.81003C 259.508,8.28061 259.905,8.67703 260.404,8.99942C 260.904,9.32175 261.476,9.60056 262.121,9.83585C 262.766,10.0711 263.43,10.3064 264.115,10.5417C 264.857,10.7953 265.595,11.0695 266.328,11.3644C 267.062,11.6593 267.717,12.0366 268.295,12.4965C 268.872,12.9563 269.337,13.514 269.688,14.1694C 270.039,14.8248 270.215,15.6322 270.215,16.5917C 270.215,17.435 270.049,18.2241 269.718,18.959C 269.386,19.6938 268.917,20.3347 268.311,20.8817C 267.704,21.4286 266.981,21.864 266.14,22.188C 265.3,22.5118 264.38,22.6738 263.381,22.6738 Z "/>
		<path fill="#3D3D3D" fill-opacity="1" stroke-width="0.2" stroke-linejoin="round" d="M 282.388,22.6738C 281.139,22.6738 279.971,22.4385 278.884,21.9679C 277.798,21.4974 276.859,20.8557 276.068,20.0429C 275.277,19.2302 274.656,18.2852 274.207,17.2082C 273.758,16.1311 273.533,14.9753 273.533,13.7409C 273.533,12.5064 273.758,11.346 274.207,10.2599C 274.656,9.17355 275.277,8.22409 276.068,7.41129C 276.859,6.59848 277.798,5.95682 278.884,5.4863C 279.971,5.01572 281.139,4.78043 282.388,4.78043C 283.094,4.78043 283.804,4.87442 284.517,5.06235C 285.231,5.25021 285.905,5.53287 286.541,5.91025C 287.176,6.28757 287.758,6.7482 288.287,7.29208C 288.816,7.83603 289.245,8.45474 289.575,9.14835L 289.575,5.07376L 291.22,5.07376L 291.22,22.3805L 289.575,22.3805L 289.575,18.4617C 289.245,19.1339 288.816,19.7351 288.287,20.2652C 287.758,20.7954 287.176,21.2376 286.541,21.5921C 285.905,21.9466 285.231,22.2154 284.517,22.3988C 283.804,22.5821 283.094,22.6738 282.388,22.6738 Z M 282.448,21.2071C 283.484,21.2071 284.442,21.0139 285.322,20.6273C 286.202,20.2408 286.975,19.7107 287.641,19.0369C 288.307,18.3631 288.826,17.5702 289.197,16.6582C 289.568,15.7461 289.754,14.7737 289.754,13.7409C 289.754,12.7112 289.568,11.7402 289.197,10.8282C 288.826,9.91611 288.307,9.12314 287.641,8.44943C 286.975,7.77567 286.202,7.2402 285.322,6.84293C 284.442,6.44571 283.484,6.2471 282.448,6.2471C 281.452,6.2471 280.514,6.4404 279.634,6.82687C 278.754,7.21341 277.986,7.74893 277.331,8.43332C 276.675,9.11777 276.162,9.91074 275.791,10.8121C 275.419,11.7135 275.234,12.6897 275.234,13.7409C 275.234,14.7737 275.419,15.7461 275.791,16.6582C 276.162,17.5702 276.675,18.3631 277.331,19.0369C 277.986,19.7107 278.754,20.2408 279.634,20.6273C 280.514,21.0139 281.452,21.2071 282.448,21.2071 Z "/>
		<path fill="#3D3D3D" fill-opacity="1" stroke-width="0.2" stroke-linejoin="round" d="M 296.294,5.07376L 297.907,5.07376L 297.907,8.43796C 298.454,7.33798 299.266,6.45334 300.341,5.78421C 301.417,5.11502 302.688,4.78043 304.155,4.78043C 305.875,4.78043 307.297,5.17386 308.422,5.96066C 309.546,6.74747 310.334,7.79013 310.787,9.08878C 311.294,7.82993 312.149,6.79709 313.351,5.99045C 314.553,5.18381 315.977,4.78043 317.62,4.78043C 318.812,4.78043 319.882,4.96683 320.831,5.33957C 321.78,5.71237 322.582,6.23337 323.237,6.90256C 323.893,7.57169 324.396,8.37302 324.747,9.30649C 325.099,10.24 325.275,11.2766 325.275,12.4163L 325.275,22.3805L 323.602,22.3805L 323.602,12.2558C 323.602,11.3881 323.46,10.5844 323.178,9.84506C 322.895,9.10556 322.495,8.46927 321.977,7.93607C 321.459,7.40286 320.828,6.98807 320.084,6.69168C 319.34,6.39529 318.508,6.2471 317.588,6.2471C 316.748,6.2471 315.957,6.38535 315.214,6.6619C 314.472,6.93845 313.826,7.33798 313.278,7.86044C 312.729,8.3829 312.299,9.01468 311.987,9.75565C 311.676,10.4966 311.52,11.33 311.52,12.2558L 311.52,22.3805L 309.847,22.3805L 309.847,11.9305C 309.847,11.081 309.71,10.3064 309.437,9.60666C 309.163,8.90695 308.777,8.31039 308.277,7.81686C 307.778,7.32346 307.171,6.93845 306.458,6.6619C 305.744,6.38535 304.938,6.2471 304.04,6.2471C 303.16,6.2471 302.348,6.39987 301.604,6.70541C 300.86,7.01102 300.219,7.44028 299.681,7.99338C 299.143,8.54642 298.723,9.21249 298.421,9.99167C 298.118,10.7708 297.967,11.6341 297.967,12.5813L 297.967,22.3805L 296.294,22.3805L 296.294,5.07376 Z "/>
		<path fill="#3D3D3D" fill-opacity="1" stroke-width="0.2" stroke-linejoin="round" d="M 335.66,22.6738C 334.194,22.6738 332.874,22.3805 331.7,21.7938C 330.527,21.2071 329.598,20.4509 328.914,19.525L 330.234,18.48C 330.799,19.2531 331.556,19.9008 332.505,20.4234C 333.454,20.9459 334.515,21.2071 335.688,21.2071C 336.47,21.2071 337.15,21.1093 337.727,20.9138C 338.305,20.7182 338.789,20.4539 339.18,20.1208C 339.572,19.7878 339.865,19.4005 340.06,18.959C 340.256,18.5174 340.354,18.0614 340.354,17.5909C 340.354,17.0226 340.212,16.5573 339.928,16.1952C 339.643,15.8332 339.267,15.5299 338.798,15.2854C 338.329,15.041 337.796,14.8355 337.2,14.669C 336.605,14.5025 335.993,14.3413 335.367,14.1855C 334.661,14.0082 333.971,13.8119 333.298,13.5965C 332.624,13.3811 332.023,13.1023 331.494,12.76C 330.966,12.4178 330.54,11.9817 330.218,11.4515C 329.895,10.9214 329.734,10.2652 329.734,9.48294C 329.734,8.85654 329.871,8.25919 330.144,7.69089C 330.418,7.12253 330.814,6.62296 331.331,6.19211C 331.849,5.76126 332.47,5.4183 333.195,5.16318C 333.919,4.90805 334.73,4.78043 335.628,4.78043C 336.863,4.78043 337.998,5.01645 339.034,5.48856C 340.07,5.96066 340.93,6.61685 341.614,7.45712L 340.354,8.47006C 339.767,7.74893 339.093,7.19815 338.33,6.81772C 337.568,6.43735 336.667,6.2471 335.628,6.2471C 334.281,6.2471 333.24,6.55038 332.507,7.15689C 331.774,7.7634 331.407,8.52658 331.407,9.44626C 331.407,9.97183 331.544,10.4111 331.817,10.764C 332.091,11.1169 332.452,11.4156 332.901,11.66C 333.35,11.9044 333.864,12.11 334.441,12.2765C 335.019,12.443 335.621,12.6042 336.247,12.76C 336.95,12.9342 337.649,13.1344 338.344,13.3604C 339.039,13.5865 339.656,13.8753 340.193,14.2267C 340.731,14.5781 341.171,15.0181 341.513,15.5467C 341.856,16.0753 342.027,16.7491 342.027,17.568C 342.027,18.176 341.899,18.7833 341.644,19.3898C 341.389,19.9963 341.002,20.544 340.484,21.0329C 339.966,21.5218 339.306,21.9175 338.504,22.2201C 337.702,22.5226 336.754,22.6738 335.66,22.6738 Z "/>
		<path fill="#3D3D3D" fill-opacity="1" stroke-width="0.2" stroke-linejoin="round" d="M 353.788,22.6738C 352.596,22.6738 351.52,22.492 350.561,22.1284C 349.601,21.7647 348.789,21.2392 348.125,20.5517C 347.46,19.8642 346.952,19.0338 346.601,18.0606C 346.249,17.0875 346.074,15.9821 346.074,14.7446L 346.074,5.07376L 347.774,5.07376L 347.774,14.8317C 347.774,15.8003 347.911,16.675 348.184,17.4557C 348.458,18.2364 348.859,18.9032 349.388,19.4563C 349.916,20.0094 350.562,20.4394 351.324,20.7465C 352.086,21.0536 352.947,21.2071 353.907,21.2071C 354.805,21.2071 355.641,21.0437 356.414,20.7167C 357.187,20.3897 357.861,19.9398 358.437,19.3669C 359.013,18.794 359.462,18.1172 359.785,17.3365C 360.107,16.5558 360.268,15.7102 360.268,14.7996L 360.268,5.07376L 361.941,5.07376L 361.941,22.3805L 360.3,22.3805L 360.3,18.9063C 359.732,20.0185 358.881,20.9245 357.747,21.6242C 356.614,22.3239 355.294,22.6738 353.788,22.6738 Z "/>
		<path fill="#3D3D3D" fill-opacity="1" stroke-width="0.2" stroke-linejoin="round" d="M 366.987,5.07376L 368.601,5.07376L 368.601,8.64877C 369.169,7.50601 370.03,6.57559 371.184,5.85751C 372.337,5.1395 373.676,4.78043 375.201,4.78043C 376.356,4.78043 377.398,4.96225 378.327,5.3259C 379.256,5.68948 380.057,6.21506 380.731,6.90256C 381.404,7.59006 381.922,8.42038 382.284,9.39359C 382.646,10.3668 382.827,11.4721 382.827,12.7096L 382.827,22.3805L 381.155,22.3805L 381.155,12.6225C 381.155,11.6539 381.013,10.7793 380.731,9.99857C 380.448,9.21786 380.042,8.55099 379.514,7.99796C 378.985,7.44492 378.34,7.0148 377.577,6.70773C 376.815,6.40067 375.954,6.2471 374.995,6.2471C 374.096,6.2471 373.261,6.41061 372.487,6.73752C 371.714,7.06448 371.044,7.51437 370.478,8.08731C 369.911,8.66025 369.466,9.33701 369.144,10.1178C 368.822,10.8984 368.66,11.744 368.66,12.6546L 368.66,22.3805L 366.987,22.3805L 366.987,5.07376 Z "/>
		<path fill="#3D3D3D" fill-opacity="1" stroke-width="0.2" stroke-linejoin="round" d="M 395.908,22.6738C 394.659,22.6738 393.491,22.4385 392.404,21.9679C 391.318,21.4974 390.379,20.8557 389.588,20.0429C 388.797,19.2302 388.176,18.2852 387.727,17.2082C 387.278,16.1311 387.053,14.9753 387.053,13.7409C 387.053,12.5064 387.278,11.346 387.727,10.2599C 388.176,9.17355 388.797,8.22409 389.588,7.41129C 390.379,6.59848 391.318,5.95682 392.404,5.4863C 393.491,5.01572 394.659,4.78043 395.908,4.78043C 396.614,4.78043 397.324,4.87442 398.037,5.06235C 398.751,5.25021 399.425,5.53287 400.061,5.91025C 400.696,6.28757 401.279,6.7482 401.807,7.29208C 402.336,7.83603 402.765,8.45474 403.095,9.14835L 403.095,5.07376L 404.74,5.07376L 404.74,21.9221C 404.74,23.2544 404.54,24.4544 404.138,25.5223C 403.736,26.5902 403.159,27.497 402.408,28.2425C 401.656,28.9881 400.751,29.5664 399.694,29.9773C 398.637,30.3883 397.464,30.5938 396.174,30.5938C 395.117,30.5938 394.178,30.4876 393.358,30.2752C 392.537,30.0628 391.804,29.7581 391.158,29.3609C 390.511,28.9637 389.939,28.4793 389.441,27.9079C 388.943,27.3365 388.49,26.6826 388.08,25.9463L 389.693,25.213C 390.317,26.429 391.137,27.3855 392.155,28.0821C 393.172,28.7788 394.512,29.1271 396.174,29.1271C 397.231,29.1271 398.19,28.9613 399.05,28.6299C 399.91,28.2983 400.638,27.8262 401.234,27.2136C 401.83,26.6009 402.289,25.8607 402.612,24.993C 402.934,24.1252 403.095,23.1566 403.095,22.0871L 403.095,18.4617C 402.765,19.1339 402.336,19.7351 401.807,20.2652C 401.279,20.7954 400.696,21.2376 400.061,21.5921C 399.425,21.9466 398.751,22.2154 398.037,22.3988C 397.324,22.5821 396.614,22.6738 395.908,22.6738 Z M 395.968,21.2071C 397.004,21.2071 397.962,21.0139 398.842,20.6273C 399.722,20.2408 400.495,19.7107 401.161,19.0369C 401.827,18.3631 402.346,17.5702 402.717,16.6582C 403.088,15.7461 403.274,14.7737 403.274,13.7409C 403.274,12.7112 403.088,11.7402 402.717,10.8282C 402.346,9.91611 401.827,9.12314 401.161,8.44943C 400.495,7.77567 399.722,7.2402 398.842,6.84293C 397.962,6.44571 397.004,6.2471 395.968,6.2471C 394.972,6.2471 394.034,6.4404 393.154,6.82687C 392.274,7.21341 391.506,7.74893 390.851,8.43332C 390.195,9.11777 389.682,9.91074 389.311,10.8121C 388.939,11.7135 388.754,12.6897 388.754,13.7409C 388.754,14.7737 388.939,15.7461 389.311,16.6582C 389.682,17.5702 390.195,18.3631 390.851,19.0369C 391.506,19.7107 392.274,20.2408 393.154,20.6273C 394.034,21.0139 394.972,21.2071 395.968,21.2071 Z "/>
	</g>
</svg>
