<?xml version="1.0" encoding="utf-8"?>
<!DOCTYPE svg PUBLIC "-//W3C//DTD SVG 1.1//EN" "http://www.w3.org/Graphics/SVG/1.1/DTD/svg11.dtd">
<svg xmlns="http://www.w3.org/2000/svg" xmlns:xlink="http://www.w3.org/1999/xlink" version="1.1" baseProfile="full" width="90.6018" height="74.2419" viewBox="0 0 90.60 74.24" enable-background="new 0 0 90.60 74.24" xml:space="preserve">
	<path fill="#3D3D3D" fill-opacity="1" stroke-width="0.2" stroke-linejoin="round" d="M 11.4905,28.2761C 11.4905,28.2761 -2.27362,19.3621 5.85382,3.36945C 5.85382,3.36945 18.5693,21.5905 44.3934,23.0325C 44.3934,23.0325 40.5919,11.1035 52.9141,2.71399C 52.9141,2.71399 64.3187,-5.28235 76.2477,5.99115C 76.2477,5.99115 84.5062,3.82831 88.0455,1.27185C 88.0455,1.27185 87.7178,5.72894 79.9181,11.6279C 79.9181,11.6279 85.0305,11.0707 90.6017,8.64569C 90.6017,8.64569 88.4716,12.7748 81.3273,18.3133C 81.3273,18.3133 81.3141,18.5112 81.2797,18.883C 81.5156,24.0192 81.3362,46.0129 62.585,61.888C 57.3775,66.8557 50.7401,70.7521 42.2857,72.447C 20.7784,79.1896 0,65.7293 0,65.7293C 0,65.7293 14.6818,68.2199 27.004,57.9951C 27.004,57.9951 15.5994,58.2573 9.7005,44.8864C 9.7005,44.8864 15.075,45.804 18.0901,44.4931C 18.0901,44.4931 3.93262,41.7404 3.14606,26.0097C 3.14606,26.0097 6.85742,28.5759 11.4905,28.2761 Z "/>
</svg>
